<svg id="Layer_1" data-name="Layer 1" xmlns="http://www.w3.org/2000/svg" viewBox="0 0 42 42"><defs><style>.cls-1{fill:#fff;}.cls-2{fill:#e60012;}.cls-3{fill:#0b318f;}</style></defs><title>flag-en</title><rect class="cls-1" x="21" y="4.64" width="21" height="4.64"/><polygon class="cls-1" points="42 23.36 21 23.36 0 23.36 0 28 42 28 42 23.36"/><rect class="cls-1" x="21" y="14" width="21" height="4.64"/><rect class="cls-1" y="32.72" width="42" height="4.64"/><path class="cls-2" d="M42,4.64v-.2h0A4.43,4.43,0,0,0,40.06.78l0,0A4.41,4.41,0,0,0,37.56,0H21V4.64Z"/><rect class="cls-2" x="21" y="9.28" width="21" height="4.72"/><rect class="cls-2" x="21" y="18.64" width="21" height="4.72"/><polygon class="cls-2" points="42 28 0 28 0 28 0 32.72 42 32.72 42 28"/><path class="cls-2" d="M42,37.56h0v-.2H0v.2A4.44,4.44,0,0,0,4.45,42H37.56A4.44,4.44,0,0,0,42,37.56Z"/><path class="cls-3" d="M21,18.64V0H19.82l-1,.75L19.18,2l-1.05-.76L17.08,2l.4-1.24-1-.75H12.27l-1,.75L11.64,2l-1.06-.76L9.53,2,9.93.75,8.9,0H4.72l-1,.75L4.09,2,3,1.23,2,2,2.38.75,2.2.62a4.43,4.43,0,0,0-2.12,3H1l-1,.7s0,.08,0,.11v.21l.32,1L0,5.4V9.72H1l-1,.7v.32l.32,1L0,11.49V16.2H1l-1,.71v.31l.32,1L0,18v5.38H21ZM4.09,21.45l-1-.76L2,21.45l.4-1.23-1-.77h1.3L3,18.21l.4,1.24h1.3l-1.05.77Zm-.4-7.72L4.09,15,3,14.2,2,15l.4-1.24-1-.77h1.3L3,11.72,3.44,13h1.3Zm0-6.49.4,1.24L3,7.71,2,8.48l.4-1.24-1-.77h1.3L3,5.23l.4,1.24h1.3Zm4.17,11-1.05-.76-1,.76L6.16,17l-1-.77h1.3L6.81,15l.41,1.23h1.3L7.46,17Zm-.4-7.73.4,1.24L6.81,11l-1,.76.4-1.24-1-.76h1.3l.4-1.24.41,1.24h1.3Zm0-6.08.4,1.23L6.81,4.87l-1,.76.4-1.23-1-.77h1.3l.4-1.24.41,1.24h1.3Zm4.18,17-1.06-.76-1.05.76.4-1.23-1-.77h1.3l.4-1.24L11,19.45h1.3l-1,.77Zm-.4-7.72.4,1.24-1.06-.77L9.53,15l.4-1.24-1-.77h1.3l.4-1.24L11,13h1.3Zm0-6.49.4,1.24-1.06-.77-1.05.77.4-1.24-1-.77h1.3l.4-1.24L11,6.47h1.3Zm4.17,11-1.05-.76-1.06.76L13.7,17l-1-.77H14L14.36,15l.4,1.23h1.3L15,17ZM15,10.48l.4,1.24L14.36,11l-1.06.76.4-1.24-1-.76H14l.41-1.24.4,1.24h1.3ZM15,4.4l.4,1.23-1.05-.76-1.06.76.4-1.23-1-.77H14l.41-1.24.4,1.24h1.3Zm4.17,17-1.05-.76-1.05.76.4-1.23-1.06-.77h1.31l.4-1.24.4,1.24h1.31l-1.06.77Zm-.4-7.72.4,1.24-1.05-.77L17.08,15l.4-1.24L16.42,13h1.31l.4-1.24.4,1.24h1.31Zm0-6.49.4,1.24-1.05-.77-1.05.77.4-1.24-1.06-.77h1.31l.4-1.24.4,1.24h1.31Z"/><polygon class="cls-1" points="17.08 1.99 18.13 1.23 19.18 1.99 18.78 0.75 19.82 0 16.44 0 17.48 0.75 17.08 1.99"/><path class="cls-1" d="M2,2,3,1.23l1,.76L3.69.75l1-.75H4.45A4.39,4.39,0,0,0,2.2.62l.18.13Z"/><polygon class="cls-1" points="9.53 1.99 10.58 1.23 11.64 1.99 11.24 0.75 12.27 0 10.5 0 8.9 0 9.93 0.75 9.53 1.99"/><polygon class="cls-1" points="18.13 5.23 17.73 6.47 16.43 6.47 17.48 7.24 17.08 8.48 18.13 7.71 19.18 8.48 18.78 7.24 19.84 6.47 18.53 6.47 18.13 5.23"/><polygon class="cls-1" points="3.04 5.23 2.63 6.47 1.33 6.47 2.38 7.24 1.98 8.48 3.04 7.71 4.09 8.48 3.69 7.24 4.74 6.47 3.44 6.47 3.04 5.23"/><polygon class="cls-1" points="10.58 5.23 10.18 6.47 8.88 6.47 9.93 7.24 9.53 8.48 10.58 7.71 11.64 8.48 11.24 7.24 12.29 6.47 10.99 6.47 10.58 5.23"/><polygon class="cls-1" points="18.13 11.72 17.73 12.96 16.43 12.96 17.48 13.73 17.08 14.97 18.13 14.2 19.18 14.97 18.78 13.73 19.84 12.96 18.53 12.96 18.13 11.72"/><polygon class="cls-1" points="3.04 11.72 2.63 12.96 1.33 12.96 2.38 13.73 1.98 14.97 3.04 14.2 4.09 14.97 3.69 13.73 4.74 12.96 3.44 12.96 3.04 11.72"/><polygon class="cls-1" points="10.58 11.72 10.18 12.96 8.88 12.96 9.93 13.73 9.53 14.97 10.58 14.2 11.64 14.97 11.24 13.73 12.29 12.96 10.99 12.96 10.58 11.72"/><polygon class="cls-1" points="18.53 19.45 18.13 18.21 17.73 19.45 16.43 19.45 17.48 20.21 17.08 21.45 18.13 20.69 19.18 21.45 18.78 20.21 19.84 19.45 18.53 19.45"/><polygon class="cls-1" points="3.44 19.45 3.04 18.21 2.63 19.45 1.33 19.45 2.38 20.21 1.98 21.45 3.04 20.69 4.09 21.45 3.69 20.21 4.74 19.45 3.44 19.45"/><polygon class="cls-1" points="10.99 19.45 10.58 18.21 10.18 19.45 8.88 19.45 9.93 20.21 9.53 21.45 10.58 20.69 11.64 21.45 11.24 20.21 12.29 19.45 10.99 19.45"/><polygon class="cls-1" points="6.81 8.48 6.41 9.71 5.11 9.72 6.16 10.48 5.76 11.72 6.81 10.96 7.87 11.72 7.46 10.48 8.52 9.72 7.21 9.71 6.81 8.48"/><polygon class="cls-1" points="0 10.74 0 11.49 0.32 11.72 0 10.74"/><polygon class="cls-1" points="0 9.72 0 10.42 0.97 9.72 0 9.72"/><polygon class="cls-1" points="14.36 8.48 13.95 9.71 12.65 9.72 13.7 10.48 13.3 11.72 14.36 10.96 15.41 11.72 15.01 10.48 16.06 9.72 14.76 9.71 14.36 8.48"/><polygon class="cls-1" points="7.21 16.2 6.81 14.97 6.41 16.2 5.11 16.2 6.16 16.97 5.76 18.21 6.81 17.45 7.87 18.21 7.46 16.97 8.52 16.2 7.21 16.2"/><polygon class="cls-1" points="0 16.2 0 16.91 0.97 16.2 0 16.2"/><polygon class="cls-1" points="0 17.22 0 17.98 0.32 18.21 0 17.22"/><polygon class="cls-1" points="14.76 16.2 14.36 14.97 13.95 16.2 12.65 16.2 13.7 16.97 13.3 18.21 14.36 17.45 15.41 18.21 15.01 16.97 16.06 16.2 14.76 16.2"/><polygon class="cls-1" points="6.81 2.39 6.41 3.63 5.11 3.63 6.16 4.4 5.76 5.63 6.81 4.87 7.87 5.63 7.46 4.4 8.52 3.63 7.21 3.63 6.81 2.39"/><polygon class="cls-1" points="0 4.65 0 5.4 0.32 5.63 0 4.65"/><path class="cls-1" d="M.08,3.63a4.05,4.05,0,0,0-.07.7l1-.7Z"/><polygon class="cls-1" points="14.36 2.39 13.95 3.63 12.65 3.63 13.7 4.4 13.3 5.63 14.36 4.87 15.41 5.63 15.01 4.4 16.06 3.63 14.76 3.63 14.36 2.39"/></svg>