<svg xmlns="http://www.w3.org/2000/svg">
	<symbol viewBox="0 0 100 100" id="map">
		<title>Map icon</title>
		<path d="M50,95.32c15.21-20.85,36.87-28.9,36.87-53.63C86.87,20.57,71.13,4.82,50,4.82S13.13,20.57,13.13,41.69c0,24.73,21.66,32.79,36.87,53.63m0-66.86A14.62,14.62,0,1,1,35.38,43.08,14.65,14.65,0,0,1,50,28.46"/>
	</symbol>
	<symbol viewBox="0 0 100 100" id="email">
		<title>Email icon</title>
		<path d="M77,27.47H22.63a5.83,5.83,0,0,0-5.82,5.82V67.92a5.83,5.83,0,0,0,5.82,5.82H77a5.83,5.83,0,0,0,5.82-5.82V33.29A5.83,5.83,0,0,0,77,27.47m1.63,7.39V66.34L62.87,50.6ZM39.7,53.57l5.74,5.74a6.39,6.39,0,0,0,8.72,0l5.73-5.73,16,16H23.71ZM48.09,56,23.75,31.66H75.82L51.48,56a2.84,2.84,0,0,1-3.39,0M36.73,50.6,21,66.33V34.87Z"/>
	</symbol>
	<symbol viewBox="0 0 100 100" id="wa">
		<title>WhatsApp icon</title>
		<path d="M51.76,81.62a32.15,32.15,0,0,1-16.13-4.35L23,81.62l2.58-13.34a32,32,0,0,1-6.19-19A32.33,32.33,0,1,1,51.76,81.62M36.21,72l1,.61a27.54,27.54,0,1,0-7.11-6.4l.68.87-1.41,7.28Z"/><path d="M35.44,36.86s1.89-3.31,3.44-3.5,3.54-.19,4.07.82,2.94,6.88,2.94,6.88a2.31,2.31,0,0,1-.22,2,19.54,19.54,0,0,1-2.05,2.4,1.77,1.77,0,0,0,0,2.09,37.78,37.78,0,0,0,4.55,5.58c2.53,2.53,7.39,4.34,7.39,4.34a1.48,1.48,0,0,0,1.13-.35c.45-.44,2.85-3.44,2.85-3.44a1.67,1.67,0,0,1,2.05-.41c1.28.58,6.82,3.34,6.82,3.34a1.21,1.21,0,0,1,.65,1.22c0,1-.4,3.37-1.21,4.18s-3.18,3.31-6.74,3.31-12-2.9-16.55-7.41S36,48.8,35.09,44.63s-.82-6.05.35-7.77"/>
	</symbol>
	<symbol viewBox="0 0 100 100" id="fb">
		<title>Facebook icon</title>
		<path d="M40.64,85.09V54.21H30V41.86H40.64v-9.1c0-10.56,6.45-16.31,15.87-16.31a88.06,88.06,0,0,1,9.52.48V28H59.5c-5.13,0-6.12,2.44-6.12,6v7.88H65.6L64,54.21H53.38V85.09Z"/>
	</symbol>
	<symbol viewBox="0 0 100 100" id="ig">
		<title>Instagram icon</title>
		<path d="M62.24,80.48H37.76a19.72,19.72,0,0,1-19.69-19.7V39.22a19.72,19.72,0,0,1,19.69-19.7H62.24a19.72,19.72,0,0,1,19.69,19.7V60.78a19.72,19.72,0,0,1-19.69,19.7M37.76,23.9A15.34,15.34,0,0,0,22.44,39.22V60.78A15.34,15.34,0,0,0,37.76,76.1H62.24A15.33,15.33,0,0,0,77.55,60.78V39.22A15.33,15.33,0,0,0,62.24,23.9Z"/><path d="M50,67.53A17.53,17.53,0,1,1,67.53,50,17.54,17.54,0,0,1,50,67.53m0-30.69A13.16,13.16,0,1,0,63.16,50,13.18,13.18,0,0,0,50,36.84"/><path d="M70.9,33a3.64,3.64,0,1,1-3.64-3.64A3.64,3.64,0,0,1,70.9,33"/>
	</symbol>
	<symbol viewBox="0 0 100 100" id="in">
		<title>LinkedIn icon</title>
		<path d="M35.87,22.45c0,3.61-2.67,6.54-7.06,6.54A6.45,6.45,0,0,1,22,22.45c0-3.7,2.75-6.54,7-6.54a6.47,6.47,0,0,1,6.89,6.54M22.35,34.16H35.44V76.25H22.35Z"/><path d="M43.27,47.58c0-5.25-.18-9.64-.35-13.42H54.29l.6,5.85h.26a15.1,15.1,0,0,1,13-6.8c8.61,0,15.06,5.77,15.06,18.16V76.25H70.13V52.92c0-5.42-1.9-9.12-6.63-9.12a7.19,7.19,0,0,0-6.72,4.9A9.56,9.56,0,0,0,56.35,52V76.25H43.27Z"/>
	</symbol>
	<symbol viewBox="0 0 100 100" id="yt">
		<title>Youtube icon</title>
		<path d="M64.39,29.63H34.66c-16.27,0-16.27,4.64-16.27,16V56.81c0,10.84,2.3,16,16.27,16H64.39c12.61,0,16.27-3,16.27-16V45.67c0-12-.62-16-16.27-16M60,50.93l-.52.27L57.89,52h0l-14.73,7.7V42.22h0L60,50.93h0Z"/>
	</symbol>
</svg>