<svg id="Layer_1" data-name="Layer 1" xmlns="http://www.w3.org/2000/svg" viewBox="0 0 1200 350"><defs><style>.cls-1{fill:#fff;}</style></defs><title>ri</title><path class="cls-1" d="M326.5,90.42V143.2H304.9V11.07h37.33q25.57,0,37.87,9.58t12.29,28.92q0,24.69-25.67,35.16L404,143.2H379.46L347.83,90.42Zm0-17.89h15q15.09,0,21.87-5.61t6.78-16.62q0-11.2-7.32-16.09t-22-4.88H326.5Z"/><path class="cls-1" d="M468.3,145q-23.31,0-36.47-13.59T418.68,94q0-24.49,12.21-38.5t33.53-14q19.8,0,31.28,12t11.48,33.08V98H440.56q.45,14.55,7.87,22.38t20.87,7.82a76.78,76.78,0,0,0,16.5-1.69A85.63,85.63,0,0,0,502.21,121v17.27a64.71,64.71,0,0,1-15.74,5.24A96.77,96.77,0,0,1,468.3,145m-3.88-87.48q-10.11,0-16.22,6.41t-7.28,18.72H486.3q-.19-12.39-6-18.76t-15.9-6.37"/><path class="cls-1" d="M585.7,145q-19,0-29.46-13.65H555q1.26,12.66,1.26,15.37v28.55H535v-132h17.17c.48,1.86,1.48,6.33,3,13.37h1.08q9.93-15.18,29.82-15.17,18.72,0,29.15,13.54T625.67,93q0,24.49-10.63,38.24T585.7,145m-5.14-86.22q-12.64,0-18.49,7.41t-5.83,23.68V93q0,18.28,5.79,26.44t18.89,8.18q11,0,17-9t6-25.76q0-16.82-5.91-25.45t-17.4-8.63"/><path class="cls-1" d="M724.53,143.21l-3-13.11h-1.1A30.18,30.18,0,0,1,707.86,141a42.21,42.21,0,0,1-18.66,4q-18.15,0-27.13-9t-8.93-27.39V43.25h21.41v61.63q0,11.48,4.7,17.22T694,127.84q13.38,0,19.66-8T719.92,93V43.25h21.33v100ZM684.14,31.05V28.8c3.44-4.23,7-8.93,10.61-14.11s6.54-9.61,8.64-13.28h24.67V3.3a188.18,188.18,0,0,1-14,14.23,200.76,200.76,0,0,1-15.78,13.52Z"/><path class="cls-1" d="M826.29,41.45Q845,41.45,855.44,55T865.87,93q0,24.6-10.55,38.28T825.93,145q-19,0-29.46-13.65H795l-3.89,11.84H775.23V2.58h21.24V36c0,2.47-.12,6.15-.36,11s-.42,8-.54,9.31h.9q10.14-14.91,29.82-14.9m-5.5,17.34q-12.84,0-18.48,7.55T796.47,91.6V93q0,18.28,5.78,26.44t18.9,8.18q11.29,0,17.12-9t5.83-25.84q0-34.08-23.31-34.08"/><rect class="cls-1" x="894.25" y="2.57" width="21.25" height="140.63"/><path class="cls-1" d="M948.3,16.77c0-3.8,1.05-6.72,3.12-8.76s5-3.08,8.9-3.08S967,6,969,8s3.13,5,3.13,8.76c0,3.61-1,6.46-3.13,8.53s-5,3.12-8.72,3.12-6.82-1-8.9-3.12a11.55,11.55,0,0,1-3.12-8.53m22.51,126.44H949.56v-100h21.25Z"/><polygon class="cls-1" points="1025.4 90.43 1037.41 75.42 1067.6 43.24 1092.1 43.24 1051.88 86.18 1094.63 143.21 1069.68 143.21 1037.6 99.37 1025.94 108.96 1025.94 143.21 1004.87 143.21 1004.87 2.58 1025.94 2.58 1025.94 71.18 1024.85 90.43 1025.4 90.43"/><path class="cls-1" d="M1177,143.21l-4.25-13.93H1172q-7.24,9.14-14.56,12.43c-4.88,2.22-11.15,3.3-18.81,3.3q-14.72,0-23-7.94t-8.27-22.51q0-15.47,11.48-23.32t35-8.58l17.26-.54V76.77q0-9.57-4.46-14.31t-13.88-4.75A48.16,48.16,0,0,0,1138,60a110.07,110.07,0,0,0-13.56,5.33l-6.87-15.19a74.7,74.7,0,0,1,17.81-6.46,82.14,82.14,0,0,1,18.25-2.21q19.06,0,28.79,8.32t9.71,26.12v67.33Zm-31.64-14.47c7.72,0,13.9-2.15,18.59-6.46s7-10.34,7-18.12V95.49l-12.84.54c-10,.37-17.26,2-21.83,5s-6.82,7.54-6.82,13.7q0,6.67,4,10.34c2.66,2.45,6.64,3.66,11.93,3.66"/><rect class="cls-1" x="303.54" y="203.93" width="8.28" height="71.12"/><path class="cls-1" d="M398.85,275.06h-9.44l-38.88-59.69h-.39q.78,10.49.77,19.26v40.43h-7.63V203.93h9.35l38.77,59.44h.39c-.07-.86-.21-3.68-.44-8.43s-.31-8.16-.23-10.2V203.93h7.73Z"/><path class="cls-1" d="M487.16,238.82q0,17.6-9.57,26.93t-27.52,9.32h-19.7V203.93h21.79q16.6,0,25.79,9.19t9.21,25.7m-8.76.28q0-13.9-7-21t-20.76-7.06h-12v56.83h10.06c9.86,0,17.29-2.42,22.24-7.27s7.45-12,7.45-21.54"/><polygon class="cls-1" points="554.63 275.06 514.97 275.06 514.97 203.93 554.63 203.93 554.63 211.28 523.25 211.28 523.25 234.19 552.74 234.19 552.74 241.5 523.25 241.5 523.25 267.67 554.63 267.67 554.63 275.06"/><path class="cls-1" d="M627.45,224.65q0,10.82-7.36,16.63T599,247.09h-8.38v28h-8.28V203.93h18.45q26.67,0,26.66,20.72M590.62,240h7.45c7.33,0,12.63-1.17,15.9-3.56s4.93-6.15,4.93-11.39q0-7-4.63-10.48t-14.41-3.47h-9.24Z"/><polygon class="cls-1" points="693.96 275.06 654.3 275.06 654.3 203.93 693.96 203.93 693.96 211.28 662.56 211.28 662.56 234.19 692.06 234.19 692.06 241.5 662.56 241.5 662.56 267.67 693.96 267.67 693.96 275.06"/><path class="cls-1" d="M777.24,275.06h-9.43l-38.88-59.69h-.39q.76,10.49.77,19.26v40.43h-7.64V203.93H731l38.79,59.44h.39c-.07-.86-.22-3.68-.44-8.43s-.3-8.16-.25-10.2V203.93h7.74Z"/><path class="cls-1" d="M865.55,238.82q0,17.6-9.56,26.93t-27.52,9.32h-19.7V203.93h21.79q16.59,0,25.79,9.19t9.2,25.7m-8.76.28q0-13.9-7-21c-4.66-4.72-11.6-7.06-20.77-7.06H817v56.83h10.08q14.77,0,22.23-7.27t7.45-21.54"/><rect class="cls-1" x="893.36" y="203.93" width="8.27" height="71.12"/><polygon class="cls-1" points="972.76 275.06 933.1 275.06 933.1 203.93 972.76 203.93 972.76 211.28 941.37 211.28 941.37 234.19 970.87 234.19 970.87 241.5 941.37 241.5 941.37 267.67 972.76 267.67 972.76 275.06"/><path class="cls-1" d="M1056.05,275.06h-9.44l-38.87-59.69h-.4q.76,10.49.77,19.26v40.43h-7.63V203.93h9.34l38.78,59.44h.4c-.07-.86-.22-3.68-.45-8.43s-.3-8.16-.24-10.2V203.93h7.74Z"/><polygon class="cls-1" points="1109.47 275.06 1101.2 275.06 1101.2 211.28 1078.66 211.28 1078.66 203.93 1132 203.93 1132 211.28 1109.47 211.28 1109.47 275.06"/><polygon class="cls-1" points="1194.31 275.06 1154.64 275.06 1154.64 203.93 1194.31 203.93 1194.31 211.28 1162.93 211.28 1162.93 234.19 1192.41 234.19 1192.41 241.5 1162.93 241.5 1162.93 267.67 1194.31 267.67 1194.31 275.06"/><rect class="cls-1" x="5.06" width="34.52" height="350"/><polygon class="cls-1" points="210.79 349.89 168.3 349.89 53.45 188.72 95.95 188.72 210.79 349.89"/><polygon class="cls-1" points="246.36 11.28 53.1 11.28 53.1 174.99 246.36 174.99 185.29 93.14 246.36 11.28"/><path class="cls-1" d="M326.55,325.16a9.5,9.5,0,0,1-3.51,7.93q-3.51,2.76-10.05,2.76h-4V349.2h-3.95V315.28h8.8q12.7,0,12.7,9.88M309,332.47h3.54c3.5,0,6-.55,7.59-1.69s2.35-2.95,2.35-5.44a5.83,5.83,0,0,0-2.21-5q-2.2-1.65-6.87-1.65H309Z"/><path class="cls-1" d="M350.94,323.77v16.49a6.6,6.6,0,0,0,1.42,4.65,5.78,5.78,0,0,0,4.43,1.52c2.66,0,4.6-.72,5.84-2.17s1.84-3.83,1.84-7.12V323.77h3.85V349.2h-3.18l-.55-3.4h-.22a7.66,7.66,0,0,1-3.28,2.87,10.91,10.91,0,0,1-4.79,1c-3.09,0-5.41-.74-6.95-2.2S347,343.63,347,340.4V323.77Z"/><path class="cls-1" d="M402.57,323.36a9.5,9.5,0,0,1,7.78,3.41c1.84,2.3,2.77,5.51,2.77,9.69s-.93,7.43-2.79,9.73a9.43,9.43,0,0,1-7.76,3.47,11,11,0,0,1-4.53-.92,8.46,8.46,0,0,1-3.45-2.82h-.28l-.81,3.28h-2.76V313.1h3.85v8.77q0,3-.18,5.28h.18q2.69-3.79,8-3.79m-.56,3.22c-2.62,0-4.52.75-5.68,2.26s-1.74,4.05-1.74,7.62.59,6.12,1.79,7.68,3.09,2.29,5.73,2.29a5.9,5.9,0,0,0,5.28-2.59c1.16-1.71,1.75-4.19,1.75-7.43s-.59-5.77-1.75-7.4a6.18,6.18,0,0,0-5.38-2.43"/><rect class="cls-1" x="434.08" y="313.11" width="3.86" height="36.09"/><path class="cls-1" d="M460,316.89a2.54,2.54,0,0,1,.65-1.94,2.4,2.4,0,0,1,3.23,0,2.5,2.5,0,0,1,.67,1.93,2.53,2.53,0,0,1-.67,1.93,2.24,2.24,0,0,1-1.6.64,2.22,2.22,0,0,1-1.63-.64,2.56,2.56,0,0,1-.65-1.93m4.18,32.31h-3.85V323.77h3.85Z"/><path class="cls-1" d="M496.8,349.66c-3.67,0-6.52-1.12-8.54-3.39s-3.05-5.48-3.05-9.63,1-7.53,3.09-9.85,5-3.48,8.76-3.48a17.28,17.28,0,0,1,3.65.39,12.47,12.47,0,0,1,2.88.93l-1.18,3.28a18.55,18.55,0,0,0-2.78-.85,12.74,12.74,0,0,0-2.67-.34q-7.74,0-7.74,9.89c0,3.12.62,5.5,1.89,7.18a6.54,6.54,0,0,0,5.6,2.51,16.88,16.88,0,0,0,6.51-1.37v3.41a14,14,0,0,1-6.42,1.32"/><path class="cls-1" d="M523.19,316.89a2.54,2.54,0,0,1,.65-1.94,2.39,2.39,0,0,1,3.22,0,2.54,2.54,0,0,1,.68,1.93,2.57,2.57,0,0,1-.68,1.93,2.34,2.34,0,0,1-3.22,0,2.56,2.56,0,0,1-.65-1.93m4.17,32.31H523.5V323.77h3.86Z"/><path class="cls-1" d="M567.09,345.8h-.22c-1.78,2.57-4.43,3.86-8,3.86a9.45,9.45,0,0,1-7.75-3.41q-2.77-3.42-2.77-9.7t2.78-9.76a10.31,10.31,0,0,1,15.69.29h.29l-.15-1.84-.1-1.79V313.11h3.86V349.2h-3.16Zm-7.71.64c2.62,0,4.53-.72,5.72-2.14s1.77-3.76,1.77-6.93v-.82c0-3.6-.59-6.17-1.8-7.7s-3.11-2.31-5.75-2.31a5.87,5.87,0,0,0-5.18,2.63c-1.2,1.75-1.79,4.23-1.79,7.44s.59,5.68,1.78,7.35a6.08,6.08,0,0,0,5.25,2.48"/><path class="cls-1" d="M608.77,349.2l-.77-3.62h-.19a10.57,10.57,0,0,1-3.78,3.23,11.65,11.65,0,0,1-4.72.85,8.5,8.5,0,0,1-5.93-2,7.07,7.07,0,0,1-2.16-5.54q0-7.73,12.34-8.07l4.31-.15v-1.57a6.5,6.5,0,0,0-1.28-4.42,5.32,5.32,0,0,0-4.13-1.43,16.8,16.8,0,0,0-7.19,2l-1.18-3a17.64,17.64,0,0,1,4.12-1.59,18,18,0,0,1,4.47-.58c3,0,5.3.67,6.76,2s2.19,3.5,2.19,6.46V349.2Zm-8.7-2.72a7.81,7.81,0,0,0,5.65-2,7.29,7.29,0,0,0,2.06-5.52V336.7l-3.85.15c-3.06.12-5.28.59-6.63,1.44a4.3,4.3,0,0,0-2,3.92,4,4,0,0,0,1.26,3.19,5.29,5.29,0,0,0,3.54,1.08"/><path class="cls-1" d="M651.12,345.8h-.21q-2.67,3.85-8,3.86a9.44,9.44,0,0,1-7.75-3.41q-2.77-3.42-2.77-9.7t2.78-9.76a9.37,9.37,0,0,1,7.74-3.48,9.23,9.23,0,0,1,7.94,3.77h.29l-.15-1.84-.09-1.79V313.11h3.85V349.2h-3.14Zm-7.71.64c2.63,0,4.54-.72,5.72-2.14s1.78-3.76,1.78-6.93v-.82q0-5.4-1.8-7.7c-1.19-1.54-3.11-2.31-5.74-2.31a5.89,5.89,0,0,0-5.19,2.63q-1.78,2.63-1.79,7.44c0,3.24.6,5.68,1.78,7.35a6.08,6.08,0,0,0,5.24,2.48"/><path class="cls-1" d="M733.77,332.19q0,8.16-4.1,12.8c-2.75,3.12-6.56,4.67-11.46,4.67s-8.85-1.51-11.56-4.59-4.06-7.36-4.06-12.92,1.36-9.8,4.07-12.84,6.59-4.56,11.6-4.56,8.67,1.55,11.42,4.64,4.09,7.36,4.09,12.8m-27,0q0,6.9,3,10.46c1.95,2.36,4.8,3.56,8.51,3.56s6.6-1.19,8.52-3.56,2.88-5.85,2.88-10.46-1-8-2.88-10.37-4.72-3.55-8.47-3.55-6.61,1.2-8.56,3.57-3,5.82-3,10.35"/><path class="cls-1" d="M772.41,349.2V332.76a6.62,6.62,0,0,0-1.41-4.64,5.78,5.78,0,0,0-4.43-1.54c-2.66,0-4.62.72-5.85,2.16s-1.86,3.81-1.86,7.12V349.2H755V323.77h3.11l.64,3.49H759a7.75,7.75,0,0,1,3.33-2.91A10.83,10.83,0,0,1,767,323.3q4.59,0,6.91,2.23c1.54,1.48,2.32,3.84,2.32,7.07v16.6Z"/><rect class="cls-1" x="798.42" y="313.11" width="3.84" height="36.09"/><path class="cls-1" d="M824.37,316.89A2.51,2.51,0,0,1,825,315a2.37,2.37,0,0,1,3.21,0,2.5,2.5,0,0,1,.68,1.93,2.53,2.53,0,0,1-.68,1.93,2.19,2.19,0,0,1-1.6.64,2.15,2.15,0,0,1-1.61-.64,2.53,2.53,0,0,1-.66-1.93m4.18,32.31H824.7V323.77h3.85Z"/><path class="cls-1" d="M868.35,349.2V332.76a6.57,6.57,0,0,0-1.41-4.64,5.72,5.72,0,0,0-4.42-1.54q-4,0-5.84,2.16t-1.87,7.12V349.2H851V323.77h3.12l.63,3.49h.19a7.7,7.7,0,0,1,3.31-2.91A10.92,10.92,0,0,1,863,323.3c3.07,0,5.36.74,6.92,2.23s2.33,3.84,2.33,7.07v16.6Z"/><path class="cls-1" d="M905.12,349.66q-5.65,0-8.9-3.43T893,336.7q0-6.15,3-9.77a10,10,0,0,1,8.12-3.62,9.6,9.6,0,0,1,7.57,3.14,12.1,12.1,0,0,1,2.77,8.3v2.44H896.94c.09,3,.84,5.24,2.27,6.78a7.79,7.79,0,0,0,6,2.33,20.33,20.33,0,0,0,8.12-1.72V348a18.51,18.51,0,0,1-8.25,1.64m-1-23.13a6.31,6.31,0,0,0-4.9,2,9.1,9.1,0,0,0-2.13,5.51h13.27a8.52,8.52,0,0,0-1.6-5.57,5.78,5.78,0,0,0-4.64-1.94"/><polygon class="cls-1" points="948.16 315.29 935.5 349.19 931.66 349.19 944.29 315.29 948.16 315.29"/><path class="cls-1" d="M997,332.19c0,5.44-1.38,9.7-4.11,12.8s-6.56,4.67-11.45,4.67-8.85-1.51-11.56-4.59-4.08-7.36-4.08-12.92,1.37-9.8,4.08-12.84,6.59-4.56,11.61-4.56q7.29,0,11.41,4.64c2.74,3.08,4.1,7.36,4.1,12.8m-27,0q0,6.9,2.94,10.46c2,2.36,4.8,3.56,8.52,3.56S988,345,990,342.65s2.86-5.85,2.86-10.46-.95-8-2.86-10.37-4.73-3.55-8.47-3.55-6.62,1.2-8.57,3.57S970,327.66,970,332.19"/><path class="cls-1" d="M1029.68,326.77h-6.47V349.2h-3.86V326.77h-4.55V325l4.55-1.4v-1.41c0-6.24,2.75-9.37,8.2-9.37a16.6,16.6,0,0,1,4.73.82l-1,3.08a12.38,12.38,0,0,0-3.8-.72,3.66,3.66,0,0,0-3.22,1.45,8,8,0,0,0-1,4.65v1.65h6.47Z"/><path class="cls-1" d="M1059.07,326.77h-6.47V349.2h-3.86V326.77h-4.54V325l4.54-1.4v-1.41q0-9.36,8.2-9.37a16.43,16.43,0,0,1,4.72.82l-1,3.08a12.43,12.43,0,0,0-3.81-.72,3.66,3.66,0,0,0-3.21,1.45,8,8,0,0,0-1.05,4.65v1.65h6.47Z"/><rect class="cls-1" x="1078.89" y="313.11" width="3.85" height="36.09"/><path class="cls-1" d="M1104.84,316.89a2.58,2.58,0,0,1,.65-1.94,2.41,2.41,0,0,1,3.24,0,2.57,2.57,0,0,1,.66,1.93,2.6,2.6,0,0,1-.66,1.93,2.37,2.37,0,0,1-3.24,0,2.6,2.6,0,0,1-.65-1.93M1109,349.2h-3.85V323.77H1109Z"/><path class="cls-1" d="M1148.84,349.2V332.76a6.62,6.62,0,0,0-1.41-4.64,5.79,5.79,0,0,0-4.43-1.54c-2.66,0-4.62.72-5.85,2.16s-1.87,3.81-1.87,7.12V349.2h-3.84V323.77h3.12l.64,3.49h.18a7.72,7.72,0,0,1,3.32-2.91,10.9,10.9,0,0,1,4.76-1.05q4.59,0,6.91,2.23c1.54,1.48,2.32,3.84,2.32,7.07v16.6Z"/><path class="cls-1" d="M1185.59,349.66c-3.76,0-6.74-1.14-8.89-3.43s-3.26-5.46-3.26-9.53,1-7.35,3-9.77a10.07,10.07,0,0,1,8.15-3.62,9.54,9.54,0,0,1,7.55,3.14,12.06,12.06,0,0,1,2.79,8.3v2.44h-17.52c.08,3,.83,5.24,2.27,6.78a7.77,7.77,0,0,0,6,2.33,20.35,20.35,0,0,0,8.11-1.72V348a18.36,18.36,0,0,1-8.25,1.64m-1-23.13a6.26,6.26,0,0,0-4.87,2,9.12,9.12,0,0,0-2.15,5.51h13.29a8.41,8.41,0,0,0-1.63-5.57,5.75,5.75,0,0,0-4.64-1.94"/></svg>